<svg width="62" height="61" viewBox="0 0 62 61" fill="none" xmlns="http://www.w3.org/2000/svg">
<path d="M31 0C14.16 0 0.5 13.66 0.5 30.5C0.5 47.34 14.16 61 31 61C47.84 61 61.5 47.34 61.5 30.5C61.5 13.66 47.84 0 31 0Z" fill="#3772FF"/>
<path d="M22.4497 15.3C22.8197 15.48 23.1698 15.6603 23.5198 15.8303C25.1598 16.6203 26.8997 16.9503 28.7197 16.8303C29.9997 16.7503 31.2397 16.45 32.4597 16.03C33.9197 15.53 35.3597 14.9904 36.8197 14.4904C38.1997 14.0204 39.6197 13.7104 41.0897 13.7004C42.6797 13.6904 44.1798 14.0504 45.6198 14.7004C46.3598 15.0304 46.8098 15.6001 47.0198 16.3601C47.2698 17.2501 47.5098 18.15 47.7498 19.05C48.9498 23.51 50.1397 27.9704 51.3297 32.4304C51.3597 32.5404 51.3898 32.66 51.3898 32.78C51.3998 33.04 51.2397 33.1703 50.9797 33.1003C50.7997 33.0503 50.6297 32.9801 50.4697 32.9001C49.4497 32.4401 48.3898 32.1202 47.2798 31.9802C45.6698 31.7802 44.0898 31.9601 42.5598 32.4401C41.0298 32.9201 39.5198 33.48 38.0098 34.01C36.7998 34.43 35.5798 34.8002 34.3098 34.9602C32.4798 35.2002 30.6997 34.9902 28.9897 34.2702C28.4797 34.0602 27.9898 33.8 27.4998 33.55C27.4198 33.51 27.3298 33.4003 27.3098 33.3103C25.6998 27.3503 24.0998 21.3804 22.4998 15.4104C22.4698 15.3904 22.4697 15.36 22.4497 15.3Z" fill="#FCFCFC"/>
<path d="M26.7199 48.8597C26.4299 48.8597 26.1399 48.8597 25.8499 48.8597C25.1499 48.8597 24.6299 48.4599 24.4499 47.7899C23.5899 44.5799 22.7299 41.37 21.8699 38.16C19.7599 30.27 17.64 22.3801 15.53 14.4901C15.26 13.4701 15.7 12.54 16.67 12.14C17.68 11.72 18.8999 12.3197 19.1899 13.3797C20.0099 16.4097 20.8199 19.4398 21.6399 22.4798C23.8999 30.8898 26.16 39.2998 28.42 47.7098C28.43 47.7598 28.4499 47.8097 28.4599 47.8597C28.6099 48.4597 28.3 48.8597 27.68 48.8597C27.35 48.8597 27.0299 48.8597 26.7199 48.8597Z" fill="#FCFCFC"/>
</svg>
