<svg width="62" height="61" viewBox="0 0 62 61" fill="none" xmlns="http://www.w3.org/2000/svg">
<path d="M31 0C14.16 0 0.5 13.66 0.5 30.5C0.5 47.34 14.16 61 31 61C47.84 61 61.5 47.34 61.5 30.5C61.5 13.66 47.84 0 31 0Z" fill="#EF466F"/>
<path d="M31.4098 29.1297C30.5698 29.1397 29.7898 28.9196 29.0498 28.5496C25.7698 26.9196 22.4897 25.2897 19.2197 23.6497C18.0097 23.0497 17.3597 22.04 17.3497 20.7C17.3397 19.44 17.9098 18.4296 19.0198 17.8196C20.1898 17.1796 21.3997 16.6098 22.5997 16.0198C24.7397 14.9498 26.8798 13.8996 29.0198 12.8196C30.0098 12.3196 31.0498 12.1196 32.1498 12.2796C32.7298 12.3596 33.2798 12.5499 33.8098 12.8099C37.0798 14.4399 40.3598 16.06 43.6298 17.7C44.8398 18.3 45.4898 19.3097 45.5098 20.6497C45.5298 21.9197 44.9597 22.9396 43.8297 23.5496C42.5697 24.2296 41.2798 24.84 39.9998 25.47C37.9498 26.49 35.8997 27.5096 33.8497 28.5296C33.0697 28.9196 32.2698 29.1497 31.4098 29.1297Z" fill="#FCFCFC"/>
<path d="M31.4798 47.8796C30.5898 47.8796 29.8099 47.6798 29.0599 47.3098C25.7799 45.6798 22.4998 44.0499 19.2198 42.4099C18.0098 41.8099 17.3898 40.7997 17.3398 39.4597C17.2898 38.1597 18.2098 36.7999 19.4298 36.3699C19.4998 36.3399 19.6198 36.3797 19.6998 36.4197C21.6698 37.3997 23.6498 38.3896 25.6198 39.3796C26.5198 39.8296 27.3998 40.32 28.3298 40.7C30.6098 41.65 32.8598 41.5397 35.0698 40.4397C37.7698 39.0997 40.4699 37.7599 43.1699 36.4099C43.2999 36.3399 43.3998 36.3399 43.5398 36.4099C44.7698 37.0099 45.4598 37.9896 45.4998 39.3596C45.5398 40.6496 44.9698 41.6796 43.8298 42.2996C42.6598 42.9396 41.4498 43.5099 40.2498 44.0999C38.1198 45.1599 35.9798 46.2198 33.8498 47.2898C33.0798 47.6598 32.2798 47.8896 31.4798 47.8796Z" fill="#FCFCFC"/>
<path d="M31.2396 38.5098C30.5896 38.5098 29.7997 38.3002 29.0497 37.9302C25.7797 36.3002 22.4996 34.6801 19.2296 33.0401C18.0096 32.4301 17.3797 31.4199 17.3397 30.0699C17.2997 28.7599 18.1896 27.4603 19.4196 26.9903C19.4896 26.9603 19.6097 26.9899 19.6897 27.0299C22.3197 28.3399 24.9597 29.66 27.5897 30.98C28.4597 31.42 29.3596 31.7302 30.3196 31.8702C31.6296 32.0502 32.9197 31.92 34.1597 31.46C34.4897 31.34 34.8097 31.2001 35.1297 31.0401C37.7997 29.7101 40.4797 28.3701 43.1497 27.0401C43.2997 26.9701 43.4097 26.9599 43.5497 27.0299C44.7797 27.6399 45.4796 28.6301 45.4996 30.0001C45.5196 31.2801 44.9496 32.3 43.8196 32.92C42.5696 33.6 41.2696 34.2099 39.9896 34.8399C37.9396 35.8599 35.8896 36.88 33.8396 37.9C32.9996 38.33 32.2596 38.5098 31.2396 38.5098Z" fill="#FCFCFC"/>
</svg>
