<svg width="24" height="28" viewBox="0 0 24 28" fill="none" xmlns="http://www.w3.org/2000/svg">
<path d="M14.8699 15.4004L11.7599 17.2002L8.64996 15.4004V11.8096L11.7599 10.0098L14.8699 11.8096L17.3499 10.3799L11.7599 7.15039L6.16992 10.3799V16.8398L11.7599 20.0703L17.3499 16.8398L14.8699 15.4004ZM14.8699 15.4004L11.7599 17.2002L8.64996 15.4004V11.8096L11.7599 10.0098L14.8699 11.8096L17.3499 10.3799L11.7599 7.15039L6.16992 10.3799V16.8398L11.7599 20.0703L17.3499 16.8398L14.8699 15.4004ZM14.8699 15.4004L11.7599 17.2002L8.64996 15.4004V11.8096L11.7599 10.0098L14.8699 11.8096L17.3499 10.3799L11.7599 7.15039L6.16992 10.3799V16.8398L11.7599 20.0703L17.3499 16.8398L14.8699 15.4004Z" fill="#8A8C8E"/>
<path d="M11.76 0.0195312L0 6.80957V20.3896L11.76 27.1797L23.52 20.3896V6.80957L11.76 0.0195312ZM11.76 23.1299L3.51001 18.3701V8.84961L11.76 4.08984L20.01 8.84961V18.3701L11.76 23.1299Z" fill="#8A8C8E"/>
<path d="M14.8799 15.4004L17.3599 16.8301L11.7599 20.0596L6.16992 16.8301V10.3701L11.7599 7.15039L17.3599 10.3701L14.8799 11.8096H14.8699L11.7599 10.0098L8.64996 11.8096V15.4004L11.7599 17.2002L14.8699 15.4004H14.8799Z" fill="#8A8C8E"/>
<path d="M14.8799 15.4004L17.3599 16.8301L11.7599 20.0596L6.16992 16.8301V10.3701L11.7599 7.15039L17.3599 10.3701L14.8799 11.8096H14.8699L11.7599 10.0098L8.64996 11.8096V15.4004L11.7599 17.2002L14.8699 15.4004H14.8799Z" fill="#8A8C8E"/>
</svg>
