<svg width="62" height="61" viewBox="0 0 62 61" fill="none" xmlns="http://www.w3.org/2000/svg">
<path d="M31 0C14.16 0 0.5 13.66 0.5 30.5C0.5 47.34 14.16 61 31 61C47.84 61 61.5 47.34 61.5 30.5C61.5 13.66 47.84 0 31 0Z" fill="#9757D7"/>
<path d="M55.0803 28.5201C54.8203 28.0101 54.3903 27.8399 53.8303 27.8399C52.0403 27.8499 50.2702 27.8399 48.4802 27.8399H48.1902C48.0602 27.1899 47.9603 26.5602 47.8203 25.9502C47.1203 22.8102 45.5802 20.19 43.0002 18.23C40.4902 16.31 37.5902 15.3899 34.4902 15.0899C32.7002 14.9299 30.9103 14.9899 29.1403 15.3199C27.5403 15.5999 26.0002 16.0798 24.6602 17.0098C24.0502 17.4298 23.5002 17.94 22.9302 18.42C22.5802 18.16 22.2002 17.8601 21.7902 17.5601C20.7402 16.8201 19.6103 16.2398 18.3303 16.0298C17.7603 15.9298 17.1703 15.9399 16.5903 16.1299C16.6103 16.1599 16.6402 16.17 16.6802 16.19C17.3902 16.64 17.8302 17.3301 18.1302 18.1001C18.5602 19.1901 18.7003 20.3303 18.7103 21.4903C18.7203 21.6503 18.6702 21.7602 18.5502 21.8702C17.9402 22.4302 17.3503 23.0099 16.7803 23.5899C16.0803 24.2899 15.4303 25.05 15.0903 25.98C14.8703 26.55 14.5903 26.7502 14.0103 26.6602C13.6103 26.6102 13.2002 26.65 12.8002 26.65C12.7902 26.72 12.7803 26.7501 12.7803 26.7701V35.0298C12.7803 35.1098 12.8303 35.1998 12.8903 35.2598C14.1503 36.4398 15.4902 37.5099 16.9902 38.3599C17.9502 38.9099 18.9702 39.3402 20.1102 39.4102C20.2802 39.4202 20.3103 39.5202 20.3403 39.6402C20.5903 40.5302 20.8502 41.4199 21.1002 42.2999C21.3902 43.3199 21.6802 44.3399 21.9802 45.3599C22.0302 45.3599 22.0702 45.3702 22.1002 45.3702H26.5602C26.7202 45.3802 26.7803 45.2902 26.8203 45.1802C27.1003 44.4102 27.3902 43.65 27.6802 42.9C27.7502 42.71 27.8303 42.65 28.0303 42.65H37.9802C38.0902 43.52 38.2003 44.3502 38.3203 45.1802H42.7502C42.7702 45.0902 42.7903 45.01 42.8303 44.92C43.2803 43.22 43.7502 41.5199 44.2202 39.8199C44.2602 39.6799 44.3702 39.55 44.4702 39.44C45.0002 38.89 45.6103 38.3898 46.0703 37.7798C47.3503 36.1198 47.9803 34.1999 48.1403 32.1299C48.1803 31.5699 48.1503 31 48.1503 30.4H53.7703C53.8903 30.4 54.0203 30.3999 54.1403 30.3799C55.0003 30.2599 55.4803 29.3301 55.0803 28.5201ZM21.3002 29.0298C20.0102 29.0298 18.9102 27.9202 18.9102 26.6402C18.9202 25.2402 19.9702 24.1199 21.2902 24.1099C22.6002 24.1099 23.6702 25.25 23.6702 26.65C23.6702 27.92 22.5602 29.0298 21.3002 29.0298ZM37.0602 20.3599H31.1702C30.7002 20.3599 30.3303 19.9801 30.3303 19.5201C30.3303 19.0501 30.7102 18.6802 31.1702 18.6802H37.0602C37.5302 18.6802 37.9003 19.0601 37.9003 19.5201C37.9003 19.9801 37.5202 20.3599 37.0602 20.3599Z" fill="#FCFCFC"/>
</svg>
