<svg width="77" height="54" viewBox="0 0 77 54" fill="none" xmlns="http://www.w3.org/2000/svg">
<path d="M75.9702 3.29001C75.9602 0.83001 73.3002 -0.68999 71.1702 0.54001L63.4302 5.01001V5.10001L63.3502 5.06001L50.8402 12.29V12.38L50.7602 12.34L38.2502 19.57V19.66L38.1702 19.62L25.6602 12.39L25.5902 12.35L13.0702 5.12001L12.9902 5.08001L5.27022 0.63001C3.14022 -0.59999 0.470215 0.940011 0.470215 3.40001V50.38C0.470215 52.84 3.14022 54.38 5.27022 53.15L12.9902 48.69L13.0702 48.65L25.5802 41.42L25.6602 41.38L38.1702 34.15L38.2502 34.11V34.2L50.7602 41.43L50.8402 41.39V41.48L63.3502 48.71L63.4302 48.67V48.76L71.1602 53.22C73.2902 54.45 75.9502 52.92 75.9602 50.45L76.0302 12.41L75.9702 3.29001ZM25.5802 26.86L13.0702 34.09V34.18L12.9902 34.14L13.0702 34.1V19.64L13.0002 19.6L13.0702 19.56V19.65L25.5802 26.86L25.6602 26.82V26.91L25.5802 26.86ZM63.4302 34.17L63.3602 34.13L50.8402 26.9L50.7602 26.86L50.8402 26.82L63.3502 19.59L63.4302 19.55V34.17Z" fill="#00D465"/>
</svg>
