<svg width="28" height="24" viewBox="0 0 28 24" fill="none" xmlns="http://www.w3.org/2000/svg">
<path d="M27.19 15.9007V16.1107C27.18 16.1507 27.1701 16.1801 27.1601 16.2201C27.0601 16.6601 26.7 16.9901 26.25 17.0501C26.17 17.0601 26.08 17.0706 26 17.0706C24.34 17.0706 22.6901 17.0706 21.0301 17.0706C20.9001 17.0706 20.9001 17.0705 20.9001 17.2005C20.9001 18.9405 20.8901 20.6802 20.9001 22.4202C20.9001 22.8902 20.5101 23.4105 19.9001 23.4105C18.8201 23.4105 17.7401 23.4105 16.6601 23.4105C16.1001 23.4105 15.6601 22.9705 15.6601 22.4105C15.6601 20.6705 15.6601 18.9308 15.6601 17.1908C15.6601 17.1008 15.6901 17.0804 15.7701 17.0804C16.2201 17.0804 16.67 17.0804 17.12 17.0804C17.69 17.0804 18.1901 16.6599 18.2801 16.0999C18.3101 15.8899 18.2801 15.6903 18.1701 15.5003C17.3801 14.0703 16.5901 12.6305 15.8001 11.2005C15.1601 10.0405 14.52 8.88005 13.88 7.72005C13.85 7.66005 13.8701 7.62064 13.8901 7.57064C14.4401 6.54064 15.0001 5.5108 15.5501 4.4808C16.0901 3.4708 16.6301 2.47029 17.1701 1.46029C17.3901 1.05029 17.73 0.819897 18.2 0.809897C18.68 0.799897 19.0401 1.02001 19.2701 1.43001C19.9401 2.64001 20.6101 3.85064 21.2801 5.07064C22.3401 6.99064 23.4 8.92017 24.46 10.8402C25.32 12.4002 26.1801 13.9501 27.0301 15.5101C27.0901 15.6101 27.1101 15.7302 27.1501 15.8402C27.1701 15.8602 27.18 15.8807 27.19 15.9007Z" fill="#8A8C8E"/>
<path d="M9.29 15.4105C8.98 15.9705 9.18992 16.6105 9.69992 16.9105C9.88992 17.0205 10.09 17.0804 10.3 17.0804C10.74 17.0804 11.18 17.0804 11.63 17.0804H11.76V17.2103C11.76 18.9503 11.76 20.69 11.76 22.43C11.76 22.98 11.32 23.4202 10.77 23.4202C10.01 23.4202 9.24996 23.4202 8.48995 23.4202C8.21995 23.4202 7.95991 23.4202 7.68991 23.4202C7.12991 23.4202 6.68991 22.9802 6.68991 22.4202C6.68991 20.6902 6.68991 18.9706 6.68991 17.2406V17.0804H6.55001C4.84001 17.0804 3.12 17.0804 1.41 17.0804C0.789999 17.0804 0.299921 16.5703 0.329921 15.9603C0.339921 15.7903 0.389935 15.6406 0.469935 15.4906C1.48994 13.6506 2.49998 11.8005 3.51998 9.95052C5.07998 7.11052 6.64993 4.28075 8.20993 1.44075C8.43993 1.02075 8.79999 0.799896 9.27999 0.809896C9.74999 0.819896 10.0999 1.04029 10.3199 1.46029C11.3799 3.50029 12.45 5.54064 13.51 7.57064C13.55 7.64064 13.54 7.70009 13.5 7.76009C12.11 10.3001 10.7 12.8605 9.29 15.4105Z" fill="#8A8C8E"/>
</svg>
