<svg width="54" height="55" viewBox="0 0 54 55" fill="none" xmlns="http://www.w3.org/2000/svg">
<path d="M53.89 12.98C53.89 15.93 53.89 18.89 53.89 21.85C53.89 23.36 52.88 24.6001 51.41 24.9001C51.16 24.9501 50.89 24.96 50.63 24.96C45.25 24.96 39.87 24.96 34.49 24.96C34.26 24.96 34.11 25.03 33.95 25.19C30.7 28.45 27.4499 31.7 24.1899 34.95C24.0299 35.11 23.96 35.26 23.96 35.49C23.97 40.9 23.97 46.3 23.96 51.71C23.96 53.22 23.04 54.4401 21.62 54.7901C21.36 54.8501 21.0899 54.8801 20.8199 54.8801C14.9199 54.8901 9.01999 54.8901 3.12 54.8801C1.36 54.8801 0.0100098 53.5201 0.0100098 51.7601C0.0100098 45.8701 0.0100098 39.97 0.0100098 34.08C0.0100098 32.27 1.35004 30.9301 3.17004 30.9301C8.58004 30.9301 13.98 30.9301 19.39 30.9301C19.62 30.9301 19.7701 30.86 19.9301 30.7C23.1901 27.44 26.45 24.1801 29.72 20.9301C29.87 20.7801 29.9399 20.6301 29.9399 20.4101C29.9299 14.9901 29.9299 9.58008 29.9399 4.16008C29.9399 2.65008 30.86 1.44002 32.29 1.09002C32.54 1.03002 32.8001 1.00005 33.0601 1.00005C38.9601 1.00005 44.86 0.99005 50.76 1.00005C52.53 1.00005 53.88 2.36006 53.88 4.14006C53.89 7.08006 53.89 10.03 53.89 12.98Z" fill="#FCFCFC"/>
</svg>
