<svg width="50" height="63" viewBox="0 0 50 63" fill="none" xmlns="http://www.w3.org/2000/svg">
<path d="M25.4102 29.45C23.9502 29.46 22.5902 29.09 21.3002 28.45C15.5902 25.61 9.87021 22.7701 4.16021 19.9201C2.05021 18.8701 0.920199 17.11 0.900199 14.77C0.880199 12.57 1.87012 10.81 3.82012 9.75001C5.86012 8.63001 7.98023 7.65 10.0602 6.61C13.7902 4.75 17.5202 2.91005 21.2502 1.04005C22.9802 0.170051 24.7801 -0.170022 26.7001 0.0899775C27.7201 0.229978 28.6701 0.560031 29.5901 1.02003C35.2901 3.86003 41.0001 6.69005 46.7001 9.54005C48.8001 10.5901 49.9502 12.3401 49.9802 14.6801C50.0102 16.8901 49.0202 18.66 47.0502 19.73C44.8602 20.91 42.6102 21.97 40.3802 23.08C36.8102 24.86 33.2302 26.6301 29.6502 28.4201C28.3002 29.0701 26.9002 29.47 25.4102 29.45Z" fill="#FCFCFC"/>
<path d="M25.5201 62.12C23.9601 62.13 22.6001 61.76 21.3101 61.12C15.5901 58.28 9.87009 55.4399 4.16009 52.5899C2.06009 51.5399 0.970061 49.7799 0.880061 47.4399C0.790061 45.1699 2.40008 42.81 4.52008 42.05C4.65008 42 4.85005 42.07 4.99005 42.14C8.43005 43.85 11.8701 45.58 15.3101 47.3C16.8801 48.08 18.4201 48.9299 20.0301 49.6099C24.0001 51.2699 27.9301 51.07 31.7901 49.15C36.4901 46.81 41.2001 44.48 45.9101 42.13C46.1401 42.01 46.3201 42.01 46.5501 42.13C48.6901 43.18 49.9 44.89 49.97 47.26C50.03 49.51 49.0401 51.3 47.0601 52.39C45.0201 53.51 42.9 54.49 40.82 55.53C37.1 57.38 33.3801 59.2299 29.6701 61.0799C28.3101 61.7299 26.9201 62.13 25.5201 62.12Z" fill="#FCFCFC"/>
<path d="M25.1101 45.78C23.9701 45.79 22.6002 45.42 21.3002 44.77C15.6002 41.93 9.89008 39.1 4.19008 36.25C2.07008 35.19 0.970149 33.4299 0.890149 31.0799C0.810149 28.7999 2.37014 26.5299 4.51014 25.7099C4.64014 25.6599 4.84012 25.72 4.98012 25.78C9.57012 28.07 14.1701 30.36 18.7501 32.67C20.2601 33.43 21.8402 33.9899 23.5202 34.2099C25.8102 34.5199 28.0401 34.3 30.2101 33.5C30.7801 33.29 31.3501 33.04 31.8902 32.77C36.5501 30.45 41.2101 28.12 45.8601 25.79C46.1101 25.66 46.3102 25.65 46.5602 25.78C48.7102 26.84 49.9201 28.5699 49.9601 30.9599C50.0001 33.1899 49.0102 34.97 47.0302 36.04C44.8402 37.22 42.5901 38.28 40.3601 39.39C36.7801 41.17 33.2101 42.95 29.6301 44.73C28.1701 45.47 26.8901 45.78 25.1101 45.78Z" fill="#FCFCFC"/>
</svg>
