<svg width="55" height="55" viewBox="0 0 55 55" fill="none" xmlns="http://www.w3.org/2000/svg">
<path d="M54.39 12.98C54.39 15.93 54.39 18.89 54.39 21.85C54.39 23.36 53.38 24.6001 51.91 24.9001C51.66 24.9501 51.39 24.96 51.13 24.96C45.75 24.96 40.37 24.96 34.99 24.96C34.76 24.96 34.61 25.03 34.45 25.19C31.2 28.45 27.95 31.7 24.69 34.95C24.53 35.11 24.46 35.26 24.46 35.49C24.47 40.9 24.47 46.3 24.46 51.71C24.46 53.22 23.54 54.4401 22.12 54.7901C21.86 54.8501 21.59 54.8801 21.32 54.8801C15.42 54.8901 9.51999 54.8901 3.62 54.8801C1.86 54.8801 0.51001 53.5201 0.51001 51.7601C0.51001 45.8701 0.51001 39.97 0.51001 34.08C0.51001 32.27 1.85001 30.9301 3.67001 30.9301C9.08001 30.9301 14.48 30.9301 19.89 30.9301C20.12 30.9301 20.27 30.86 20.43 30.7C23.69 27.44 26.95 24.1801 30.22 20.9301C30.37 20.7801 30.44 20.6301 30.44 20.4101C30.43 14.9901 30.43 9.58008 30.44 4.16008C30.44 2.65008 31.36 1.44002 32.79 1.09002C33.04 1.03002 33.3 1.00005 33.56 1.00005C39.46 1.00005 45.36 0.99005 51.26 1.00005C53.03 1.00005 54.38 2.36006 54.38 4.14006C54.39 7.08006 54.39 10.03 54.39 12.98Z" fill="#FCFCFC"/>
</svg>
