<svg width="74" height="53" viewBox="0 0 74 53" fill="none" xmlns="http://www.w3.org/2000/svg">
<path d="M73.2601 23.82C72.8101 22.94 72.07 22.64 71.11 22.64C68.03 22.66 64.9701 22.64 61.8901 22.64H61.3901C61.1701 21.52 61.0001 20.44 60.7601 19.37C59.5501 13.96 56.9001 9.44009 52.4501 6.06009C48.1201 2.76009 43.1201 1.17005 37.7801 0.650052C34.7001 0.370052 31.6001 0.480066 28.5601 1.04007C25.8001 1.53007 23.1501 2.34998 20.8301 3.94998C19.7801 4.67998 18.8301 5.56003 17.8401 6.38003C17.2401 5.93003 16.5901 5.41006 15.8801 4.91006C14.0701 3.64006 12.13 2.63006 9.91003 2.28006C8.92003 2.11006 7.91009 2.12998 6.90009 2.44998C6.94009 2.50998 6.99005 2.52009 7.05005 2.56009C8.28005 3.34009 9.03005 4.52 9.55005 5.85C10.3 7.74 10.5401 9.69997 10.5601 11.69C10.5801 11.97 10.4901 12.16 10.2801 12.34C9.23009 13.31 8.21003 14.3001 7.22003 15.3101C6.01003 16.5201 4.89006 17.83 4.31006 19.44C3.94006 20.43 3.45006 20.77 2.44006 20.62C1.75006 20.53 1.04004 20.6 0.350037 20.6C0.330037 20.71 0.310059 20.7701 0.310059 20.8101V35.0501C0.310059 35.1801 0.400061 35.35 0.500061 35.44C2.66006 37.47 4.98007 39.3201 7.57007 40.7801C9.23007 41.7301 10.9901 42.48 12.9501 42.59C13.2501 42.61 13.2901 42.78 13.3401 42.98C13.7701 44.51 14.2201 46.04 14.6501 47.57C15.1501 49.32 15.66 51.08 16.16 52.85C16.25 52.85 16.3101 52.87 16.3701 52.87H24.0601C24.3401 52.89 24.4301 52.7401 24.5101 52.5301C24.9901 51.2001 25.5 49.9 25.98 48.59C26.09 48.25 26.2401 48.1601 26.5801 48.1601H43.73C43.92 49.6501 44.1001 51.0901 44.3101 52.5301H51.9501C51.9901 52.3801 52.0201 52.23 52.0801 52.08C52.8601 49.15 53.67 46.2201 54.47 43.2901C54.54 43.0501 54.7301 42.82 54.9001 42.64C55.8101 41.69 56.86 40.8301 57.66 39.7801C59.86 36.9201 60.95 33.6001 61.23 30.0401C61.3 29.0701 61.2501 28.1001 61.2501 27.0501H70.9401C71.1501 27.0501 71.3701 27.05 71.5701 27.01C73.1101 26.83 73.9501 25.22 73.2601 23.82ZM15.0001 24.7C12.7801 24.7 10.8701 22.78 10.8701 20.57C10.8901 18.16 12.7 16.22 14.98 16.2C17.24 16.2 19.0901 18.16 19.0901 20.59C19.0901 22.8 17.1801 24.7 15.0001 24.7ZM42.1801 9.75003H32.0301C31.2301 9.75003 30.5701 9.10007 30.5701 8.29007C30.5701 7.48007 31.2201 6.82998 32.0301 6.82998H42.1801C42.9801 6.82998 43.6401 7.48007 43.6401 8.29007C43.6401 9.10007 42.9801 9.75003 42.1801 9.75003Z" fill="#FCFCFC"/>
</svg>
