<svg width="53" height="55" viewBox="0 0 53 55" fill="none" xmlns="http://www.w3.org/2000/svg">
<path d="M10.3301 4.84002C10.8801 5.11002 11.3801 5.37004 11.9001 5.61004C14.3101 6.77004 16.8602 7.25001 19.5302 7.08001C21.4102 6.96001 23.2401 6.53009 25.0101 5.91009C27.1501 5.17009 29.2601 4.38008 31.4001 3.65008C33.4301 2.96008 35.5102 2.51005 37.6702 2.49005C40.0002 2.47005 42.2001 3.00001 44.3201 3.95001C45.4101 4.44001 46.0601 5.27006 46.3801 6.38006C46.7501 7.69006 47.0901 9.01 47.4501 10.32C49.2001 16.87 50.9601 23.41 52.7101 29.96C52.7501 30.13 52.7902 30.3 52.8002 30.47C52.8102 30.86 52.5701 31.05 52.2001 30.95C51.9401 30.88 51.6901 30.7701 51.4501 30.6601C49.9501 29.9801 48.4001 29.52 46.7601 29.32C44.4001 29.03 42.0801 29.2901 39.8301 30.0001C37.5801 30.7101 35.3701 31.5301 33.1501 32.3001C31.3801 32.9201 29.5801 33.45 27.7201 33.7C25.0301 34.05 22.4202 33.74 19.9102 32.69C19.1602 32.38 18.4401 32.0001 17.7201 31.6301C17.6001 31.5701 17.4701 31.4101 17.4401 31.2801C15.0801 22.5301 12.7401 13.7701 10.3901 5.01007C10.3501 4.98007 10.3501 4.93002 10.3301 4.84002Z" fill="#FCFCFC"/>
<path d="M16.5899 54.0999C16.1599 54.0999 15.74 54.0999 15.31 54.0999C14.28 54.0999 13.51 53.52 13.25 52.53C11.99 47.82 10.7299 43.11 9.45992 38.39C6.35992 26.81 3.24998 15.23 0.149983 3.64997C-0.250017 2.14997 0.409914 0.789897 1.82991 0.199897C3.30991 -0.410103 5.09998 0.459965 5.51998 2.01997C6.71998 6.46996 7.90994 10.9199 9.10994 15.3699C12.4299 27.7099 15.74 40.06 19.06 52.41C19.08 52.48 19.1 52.56 19.12 52.63C19.34 53.51 18.8899 54.0899 17.9699 54.0999C17.5199 54.0999 17.0499 54.0999 16.5899 54.0999Z" fill="#FCFCFC"/>
</svg>
